<?xml version="1.0" standalone="no"?>
<!DOCTYPE svg PUBLIC "-//W3C//DTD SVG 20010904//EN"
 "http://www.w3.org/TR/2001/REC-SVG-20010904/DTD/svg10.dtd">
<svg version="1.0" xmlns="http://www.w3.org/2000/svg"
 width="910.000000pt" height="824.000000pt" viewBox="0 0 910.000000 824.000000"
 preserveAspectRatio="xMidYMid meet">

<g transform="translate(0.000000,824.000000) scale(0.100000,-0.100000)"
fill="#306e63" stroke="none">
<path d="M2220 8214 c-407 -50 -741 -174 -1082 -400 -649 -431 -1030 -1014
-1109 -1698 -17 -149 -6 -510 20 -666 134 -783 594 -1646 1380 -2590 622 -746
1461 -1552 2391 -2296 308 -247 707 -544 730 -544 23 0 421 296 730 544 927
741 1769 1550 2391 2296 786 944 1246 1807 1380 2590 26 156 37 517 20 666
-58 508 -275 948 -653 1325 -331 332 -735 578 -1135 693 -229 66 -345 81 -643
81 -287 0 -367 -9 -605 -65 -294 -70 -600 -192 -900 -359 -117 -66 -435 -272
-542 -353 l-43 -32 -42 32 c-108 81 -426 287 -543 353 -290 162 -599 286 -880
355 -221 54 -325 66 -585 69 -135 2 -261 1 -280 -1z"/>
</g>
</svg>
